<svg width="22" height="22" viewBox="0 0 22 22" fill="none" xmlns="http://www.w3.org/2000/svg">
<path d="M18.8238 3.17592C17.4813 1.8335 15.3207 1.8335 10.9995 1.8335C6.67831 1.8335 4.51771 1.8335 3.17528 3.17592C2.48092 3.87029 2.14571 4.78355 1.98389 6.10148C2.47033 5.56004 3.05482 5.109 3.71116 4.77458C4.42752 4.40958 5.19458 4.26156 6.04389 4.19217C6.86443 4.12513 7.87406 4.12515 9.10859 4.12516H12.8905C14.125 4.12515 15.1346 4.12513 15.9551 4.19217C16.8045 4.26156 17.5715 4.40958 18.2879 4.77458C18.9442 5.109 19.5287 5.56004 20.0152 6.10148C19.8533 4.78355 19.5181 3.87029 18.8238 3.17592Z" fill="#0765FF"/>
<path fill-rule="evenodd" clip-rule="evenodd" d="M1.8335 12.8333C1.8335 10.2664 1.8335 8.98297 2.33305 8.00254C2.77247 7.14013 3.47363 6.43897 4.33604 5.99955C5.31647 5.5 6.59992 5.5 9.16683 5.5H12.8335C15.4004 5.5 16.6839 5.5 17.6643 5.99955C18.5267 6.43897 19.2279 7.14013 19.6673 8.00254C20.1668 8.98297 20.1668 10.2664 20.1668 12.8333C20.1668 15.4002 20.1668 16.6837 19.6673 17.6641C19.2279 18.5265 18.5267 19.2277 17.6643 19.6671C16.6839 20.1667 15.4004 20.1667 12.8335 20.1667H9.16683C6.59992 20.1667 5.31647 20.1667 4.33604 19.6671C3.47363 19.2277 2.77247 18.5265 2.33305 17.6641C1.8335 16.6837 1.8335 15.4002 1.8335 12.8333ZM11.4863 16.0695C11.3574 16.1984 11.1825 16.2708 11.0002 16.2708C10.8178 16.2708 10.643 16.1984 10.514 16.0695L8.22236 13.7778C7.95388 13.5093 7.95388 13.074 8.22236 12.8055C8.49085 12.537 8.92615 12.537 9.19463 12.8055L10.3127 13.9236V10.0833C10.3127 9.70364 10.6205 9.39583 11.0002 9.39583C11.3799 9.39583 11.6877 9.70364 11.6877 10.0833V13.9236L12.8057 12.8055C13.0742 12.537 13.5095 12.537 13.778 12.8055C14.0465 13.074 14.0465 13.5093 13.778 13.7778L11.4863 16.0695Z" fill="#0765FF"/>
</svg>
