<svg width="37" height="36" viewBox="0 0 37 36" fill="none" xmlns="http://www.w3.org/2000/svg">
<path fill-rule="evenodd" clip-rule="evenodd" d="M23.2574 0.75H26.5312C29.6178 0.75 31.1611 0.75 32.12 1.70888C33.0789 2.66775 33.0789 4.21104 33.0789 7.29762V32.2604H34.7158C35.3938 32.2604 35.9435 32.8101 35.9435 33.4881C35.9435 34.1661 35.3938 34.7158 34.7158 34.7158H1.97768C1.29965 34.7158 0.75 34.1661 0.75 33.4881C0.75 32.8101 1.29965 32.2604 1.97768 32.2604H3.61458V12.2083C3.61458 9.12176 3.61458 7.57847 4.57346 6.61959C5.53234 5.66071 7.07563 5.66071 10.1622 5.66071H16.7098C19.7964 5.66071 21.3397 5.66071 22.2986 6.61959C23.2574 7.57847 23.2574 9.12176 23.2574 12.2083V32.2604H25.7128V12.2083L25.7128 12.0619C25.713 10.6449 25.7131 9.34573 25.571 8.2889C25.4146 7.12513 25.0464 5.89507 24.0348 4.88339C23.0231 3.87171 21.793 3.50358 20.6293 3.34711C19.5873 3.20703 18.3098 3.2052 16.9161 3.20534C17.0541 2.57146 17.2844 2.09322 17.6687 1.70888C18.6276 0.75 20.1709 0.75 23.2574 0.75ZM7.29762 10.5714C7.29762 9.8934 7.84727 9.34375 8.5253 9.34375H18.3467C19.0248 9.34375 19.5744 9.8934 19.5744 10.5714C19.5744 11.2495 19.0248 11.7991 18.3467 11.7991H8.5253C7.84727 11.7991 7.29762 11.2495 7.29762 10.5714ZM7.29762 15.4821C7.29762 14.8041 7.84727 14.2545 8.5253 14.2545H18.3467C19.0248 14.2545 19.5744 14.8041 19.5744 15.4821C19.5744 16.1602 19.0248 16.7098 18.3467 16.7098H8.5253C7.84727 16.7098 7.29762 16.1602 7.29762 15.4821ZM7.29762 20.3929C7.29762 19.7148 7.84727 19.1652 8.5253 19.1652H18.3467C19.0248 19.1652 19.5744 19.7148 19.5744 20.3929C19.5744 21.0709 19.0248 21.6205 18.3467 21.6205H8.5253C7.84727 21.6205 7.29762 21.0709 7.29762 20.3929ZM13.436 27.3497C14.114 27.3497 14.6637 27.8994 14.6637 28.5774V32.2604H12.2083V28.5774C12.2083 27.8994 12.758 27.3497 13.436 27.3497Z" fill="#0765FF"/>
<path d="M32.12 1.70888L31.5897 2.23921V2.23921L32.12 1.70888ZM17.6687 1.70888L17.1384 1.17855V1.17855L17.6687 1.70888ZM20.6293 3.34711L20.5293 4.09042V4.09042L20.6293 3.34711ZM24.0348 4.88339L23.5044 5.41372L23.5044 5.41372L24.0348 4.88339ZM25.571 8.2889L26.3144 8.18897V8.18897L25.571 8.2889ZM16.9161 3.20534L16.1832 3.04582L15.9852 3.95543L16.9162 3.95534L16.9161 3.20534ZM22.2986 6.61959L21.7682 7.14992V7.14992L22.2986 6.61959ZM3.61458 32.2604V33.0104H4.36458V32.2604H3.61458ZM12.2083 32.2604H11.4583V33.0104H12.2083V32.2604ZM14.6637 32.2604V33.0104H15.4137V32.2604H14.6637ZM23.2574 32.2604H22.5074V33.0104H23.2574V32.2604ZM25.7128 32.2604V33.0104H26.4628V32.2604H25.7128ZM33.0789 32.2604H32.3289V33.0104H33.0789V32.2604ZM23.2574 0.75V1.5H26.5312V0.75V0H23.2574V0.75ZM26.5312 0.75V1.5C28.0957 1.5 29.1937 1.50159 30.0236 1.61317C30.8319 1.72185 31.2728 1.92235 31.5897 2.23921L32.12 1.70888L32.6503 1.17855C32.0083 0.536532 31.1981 0.257589 30.2234 0.126548C29.2703 -0.00159281 28.0533 0 26.5312 0V0.75ZM33.0789 7.29762H33.8289C33.8289 5.77553 33.8305 4.55852 33.7023 3.60542C33.5713 2.63075 33.2923 1.82056 32.6503 1.17855L32.12 1.70888L31.5897 2.23921C31.9065 2.55607 32.107 2.99696 32.2157 3.8053C32.3273 4.63521 32.3289 5.73313 32.3289 7.29762H33.0789ZM23.2574 0.75V0C21.7354 0 20.5183 -0.00159281 19.5652 0.126548C18.5906 0.257589 17.7804 0.536532 17.1384 1.17855L17.6687 1.70888L18.199 2.23921C18.5159 1.92235 18.9568 1.72185 19.7651 1.61317C20.595 1.50159 21.6929 1.5 23.2574 1.5V0.75ZM24.0348 4.88339L24.5651 4.35306C23.3905 3.1785 21.9755 2.77136 20.7292 2.6038L20.6293 3.34711L20.5293 4.09042C21.6106 4.23579 22.6556 4.56491 23.5044 5.41372L24.0348 4.88339ZM25.571 8.2889L26.3144 8.18897C26.1468 6.94266 25.7397 5.52762 24.5651 4.35306L24.0348 4.88339L23.5044 5.41372C24.3532 6.26253 24.6824 7.3076 24.8277 8.38884L25.571 8.2889ZM25.7128 12.0619L26.4628 12.0619C26.463 10.6617 26.4646 9.30634 26.3144 8.18897L25.571 8.2889L24.8277 8.38884C24.9617 9.38512 24.963 10.628 24.9628 12.0618L25.7128 12.0619ZM25.7128 12.2083H26.4628C26.4628 12.1594 26.4628 12.1106 26.4628 12.0619L25.7128 12.0619L24.9628 12.0618C24.9628 12.1104 24.9628 12.1593 24.9628 12.2083H25.7128ZM20.6293 3.34711L20.7292 2.6038C19.6271 2.45562 18.2943 2.4552 16.916 2.45534L16.9161 3.20534L16.9162 3.95534C18.3253 3.9552 19.5476 3.95843 20.5293 4.09042L20.6293 3.34711ZM16.9161 3.20534L17.6489 3.36486C17.7653 2.83022 17.9425 2.49571 18.199 2.23921L17.6687 1.70888L17.1384 1.17855C16.6262 1.69073 16.3428 2.3127 16.1832 3.04582L16.9161 3.20534ZM25.7128 12.2083L26.4628 12.2084L26.4628 12.0619L25.7128 12.0619L24.9628 12.0618L24.9628 12.2083L25.7128 12.2083ZM10.1622 5.66071V6.41071H16.7098V5.66071V4.91071H10.1622V5.66071ZM16.7098 5.66071V6.41071C18.2743 6.41071 19.3722 6.41231 20.2021 6.52389C21.0105 6.63256 21.4514 6.83306 21.7682 7.14992L22.2986 6.61959L22.8289 6.08926C22.1869 5.44725 21.3767 5.1683 20.402 5.03726C19.4489 4.90912 18.2319 4.91071 16.7098 4.91071V5.66071ZM23.2574 12.2083H24.0074C24.0074 10.6862 24.009 9.46923 23.8809 8.51614C23.7499 7.54147 23.4709 6.73128 22.8289 6.08926L22.2986 6.61959L21.7682 7.14992C22.0851 7.46678 22.2856 7.90767 22.3943 8.71601C22.5058 9.54592 22.5074 10.6438 22.5074 12.2083H23.2574ZM10.1622 5.66071V4.91071C8.64012 4.91071 7.4231 4.90912 6.47001 5.03726C5.49534 5.1683 4.68514 5.44725 4.04313 6.08926L4.57346 6.61959L5.10379 7.14992C5.42065 6.83306 5.86154 6.63256 6.66988 6.52389C7.49979 6.41231 8.59771 6.41071 10.1622 6.41071V5.66071ZM3.61458 12.2083H4.36458C4.36458 10.6438 4.36618 9.54592 4.47775 8.71601C4.58643 7.90767 4.78693 7.46678 5.10379 7.14992L4.57346 6.61959L4.04313 6.08926C3.40111 6.73128 3.12217 7.54147 2.99113 8.51614C2.86299 9.46923 2.86458 10.6862 2.86458 12.2083H3.61458ZM8.5253 9.34375V8.59375C7.43306 8.59375 6.54762 9.47919 6.54762 10.5714H7.29762H8.04762C8.04762 10.3076 8.26148 10.0938 8.5253 10.0938V9.34375ZM18.3467 9.34375V8.59375H8.5253V9.34375V10.0938H18.3467V9.34375ZM19.5744 10.5714H20.3244C20.3244 9.47919 19.439 8.59375 18.3467 8.59375V9.34375V10.0938C18.6105 10.0938 18.8244 10.3076 18.8244 10.5714H19.5744ZM18.3467 11.7991V12.5491C19.439 12.5491 20.3244 11.6637 20.3244 10.5714H19.5744H18.8244C18.8244 10.8352 18.6105 11.0491 18.3467 11.0491V11.7991ZM8.5253 11.7991V12.5491H18.3467V11.7991V11.0491H8.5253V11.7991ZM7.29762 10.5714H6.54762C6.54762 11.6637 7.43306 12.5491 8.5253 12.5491V11.7991V11.0491C8.26148 11.0491 8.04762 10.8352 8.04762 10.5714H7.29762ZM8.5253 14.2545V13.5045C7.43306 13.5045 6.54762 14.3899 6.54762 15.4821H7.29762H8.04762C8.04762 15.2183 8.26148 15.0045 8.5253 15.0045V14.2545ZM18.3467 14.2545V13.5045H8.5253V14.2545V15.0045H18.3467V14.2545ZM19.5744 15.4821H20.3244C20.3244 14.3899 19.439 13.5045 18.3467 13.5045V14.2545V15.0045C18.6105 15.0045 18.8244 15.2183 18.8244 15.4821H19.5744ZM18.3467 16.7098V17.4598C19.439 17.4598 20.3244 16.5744 20.3244 15.4821H19.5744H18.8244C18.8244 15.746 18.6105 15.9598 18.3467 15.9598V16.7098ZM8.5253 16.7098V17.4598H18.3467V16.7098V15.9598H8.5253V16.7098ZM7.29762 15.4821H6.54762C6.54762 16.5744 7.43306 17.4598 8.5253 17.4598V16.7098V15.9598C8.26148 15.9598 8.04762 15.746 8.04762 15.4821H7.29762ZM8.5253 19.1652V18.4152C7.43306 18.4152 6.54762 19.3006 6.54762 20.3929H7.29762H8.04762C8.04762 20.129 8.26148 19.9152 8.5253 19.9152V19.1652ZM18.3467 19.1652V18.4152H8.5253V19.1652V19.9152H18.3467V19.1652ZM19.5744 20.3929H20.3244C20.3244 19.3006 19.439 18.4152 18.3467 18.4152V19.1652V19.9152C18.6105 19.9152 18.8244 20.129 18.8244 20.3929H19.5744ZM18.3467 21.6205V22.3705C19.439 22.3705 20.3244 21.4851 20.3244 20.3929H19.5744H18.8244C18.8244 20.6567 18.6105 20.8705 18.3467 20.8705V21.6205ZM8.5253 21.6205V22.3705H18.3467V21.6205V20.8705H8.5253V21.6205ZM7.29762 20.3929H6.54762C6.54762 21.4851 7.43306 22.3705 8.5253 22.3705V21.6205V20.8705C8.26148 20.8705 8.04762 20.6567 8.04762 20.3929H7.29762ZM14.6637 28.5774H15.4137C15.4137 27.4851 14.5283 26.5997 13.436 26.5997V27.3497V28.0997C13.6998 28.0997 13.9137 28.3136 13.9137 28.5774H14.6637ZM13.436 27.3497V26.5997C12.3438 26.5997 11.4583 27.4851 11.4583 28.5774H12.2083H12.9583C12.9583 28.3136 13.1722 28.0997 13.436 28.0997V27.3497ZM1.97768 32.2604V31.5104C0.885437 31.5104 0 32.3959 0 33.4881H0.75H1.5C1.5 33.2243 1.71386 33.0104 1.97768 33.0104V32.2604ZM35.9435 33.4881H36.6935C36.6935 32.3959 35.808 31.5104 34.7158 31.5104V32.2604V33.0104C34.9796 33.0104 35.1935 33.2243 35.1935 33.4881H35.9435ZM34.7158 34.7158V35.4658C35.808 35.4658 36.6935 34.5803 36.6935 33.4881H35.9435H35.1935C35.1935 33.7519 34.9796 33.9658 34.7158 33.9658V34.7158ZM1.97768 34.7158V35.4658H34.7158V34.7158V33.9658H1.97768V34.7158ZM0.75 33.4881H0C0 34.5803 0.885437 35.4658 1.97768 35.4658V34.7158V33.9658C1.71386 33.9658 1.5 33.7519 1.5 33.4881H0.75ZM3.61458 32.2604V31.5104H1.97768V32.2604V33.0104H3.61458V32.2604ZM3.61458 32.2604H4.36458V12.2083H3.61458H2.86458V32.2604H3.61458ZM12.2083 28.5774H11.4583V32.2604H12.2083H12.9583V28.5774H12.2083ZM14.6637 32.2604V31.5104H12.2083V32.2604V33.0104H14.6637V32.2604ZM14.6637 32.2604H15.4137V28.5774H14.6637H13.9137V32.2604H14.6637ZM23.2574 12.2083H22.5074V32.2604H23.2574H24.0074V12.2083H23.2574ZM25.7128 32.2604V31.5104H23.2574V32.2604V33.0104H25.7128V32.2604ZM25.7128 32.2604H26.4628V12.2083H25.7128H24.9628V32.2604H25.7128ZM34.7158 32.2604V31.5104H33.0789V32.2604V33.0104H34.7158V32.2604ZM33.0789 7.29762H32.3289V32.2604H33.0789H33.8289V7.29762H33.0789Z" fill="#0765FF"/>
</svg>
