<svg width="24" height="31" viewBox="0 0 24 31" fill="none" xmlns="http://www.w3.org/2000/svg">
<g opacity="0.3">
<path opacity="0.3" d="M19.6851 6.94129C18.9145 6.94054 18.1758 6.6341 17.6309 6.08925C17.0861 5.5444 16.7796 4.80563 16.7789 4.03509V2.61942e-07H3.79411C3.29593 -0.000184867 2.80258 0.0977624 2.34227 0.28828C1.88195 0.478798 1.46368 0.758147 1.11135 1.11035C0.759014 1.46255 0.479519 1.88072 0.28883 2.34096C0.0981417 2.8012 -3.43978e-08 3.2945 0 3.79268V26.6559C-3.43978e-08 27.1541 0.0981417 27.6475 0.28883 28.1077C0.479519 28.5679 0.759014 28.9861 1.11135 29.3383C1.46368 29.6905 1.88195 29.9698 2.34227 30.1603C2.80258 30.3509 3.29593 30.4488 3.79411 30.4487H19.3821C20.3879 30.4487 21.3526 30.0491 22.0639 29.3378C22.7752 28.6265 23.1747 27.6618 23.1747 26.6559V6.94129H19.6851Z" fill="#0765FF"/>
</g>
<path d="M23.1771 6.94129H19.6874C18.9169 6.94054 18.1781 6.6341 17.6333 6.08925C17.0884 5.5444 16.782 4.80563 16.7812 4.03509V0L23.1771 6.94129Z" fill="#0765FF"/>
<path d="M18.4108 11.8003H3.86012C3.72032 11.8003 3.58626 11.7447 3.4874 11.6459C3.38855 11.547 3.33301 11.413 3.33301 11.2732C3.33282 11.2038 3.34633 11.1351 3.37274 11.071C3.39914 11.0069 3.43794 10.9486 3.4869 10.8995C3.53587 10.8504 3.59403 10.8115 3.65807 10.7849C3.72212 10.7583 3.79078 10.7446 3.86012 10.7446H18.4108C18.5509 10.7446 18.6854 10.8003 18.7845 10.8994C18.8836 10.9986 18.9393 11.133 18.9393 11.2732C18.9389 11.4131 18.8831 11.5472 18.784 11.646C18.6849 11.7448 18.5507 11.8003 18.4108 11.8003Z" fill="#0765FF"/>
<path d="M18.4108 14.9546H3.86012C3.72032 14.9546 3.58626 14.899 3.4874 14.8002C3.38855 14.7013 3.33301 14.5673 3.33301 14.4275C3.33282 14.3581 3.34633 14.2894 3.37274 14.2253C3.39914 14.1612 3.43794 14.1029 3.4869 14.0538C3.53587 14.0047 3.59403 13.9658 3.65807 13.9392C3.72212 13.9126 3.79078 13.8989 3.86012 13.8989H18.4108C18.5509 13.8989 18.6854 13.9546 18.7845 14.0537C18.8836 14.1528 18.9393 14.2873 18.9393 14.4275C18.9389 14.5674 18.8831 14.7014 18.784 14.8002C18.6849 14.8991 18.5507 14.9546 18.4108 14.9546Z" fill="#0765FF"/>
<path d="M18.4108 18.1064H3.86012C3.79078 18.1064 3.72212 18.0927 3.65807 18.0662C3.59403 18.0396 3.53587 18.0006 3.4869 17.9515C3.43794 17.9024 3.39914 17.8442 3.37274 17.78C3.34633 17.7159 3.33282 17.6472 3.33301 17.5779C3.33301 17.4381 3.38855 17.304 3.4874 17.2052C3.58626 17.1063 3.72032 17.0508 3.86012 17.0508H18.4108C18.5507 17.0508 18.6849 17.1063 18.784 17.2051C18.8831 17.3039 18.9389 17.438 18.9393 17.5779C18.9393 17.7181 18.8836 17.8525 18.7845 17.9516C18.6854 18.0507 18.5509 18.1064 18.4108 18.1064Z" fill="#0765FF"/>
<path d="M12.6689 21.2597H3.86012C3.79078 21.2597 3.72212 21.2461 3.65807 21.2195C3.59403 21.1929 3.53587 21.1539 3.4869 21.1048C3.43794 21.0557 3.39914 20.9975 3.37274 20.9334C3.34633 20.8693 3.33282 20.8006 3.33301 20.7312C3.33301 20.5914 3.38855 20.4573 3.4874 20.3585C3.58626 20.2596 3.72032 20.2041 3.86012 20.2041H12.6689C12.8087 20.2041 12.9427 20.2596 13.0416 20.3585C13.1404 20.4573 13.196 20.5914 13.196 20.7312C13.1962 20.8006 13.1827 20.8693 13.1563 20.9334C13.1298 20.9975 13.0911 21.0557 13.0421 21.1048C12.9931 21.1539 12.935 21.1929 12.8709 21.2195C12.8069 21.2461 12.7382 21.2597 12.6689 21.2597Z" fill="#0765FF"/>
</svg>
