<svg width="15" height="16" viewBox="0 0 15 16" fill="none" xmlns="http://www.w3.org/2000/svg">
<g opacity="0.5">
<path d="M14 7.32314V11.0682C14 13.3906 14 14.5518 13.4494 15.0592C13.1868 15.3012 12.8554 15.4533 12.5023 15.4937C11.762 15.5784 10.8974 14.8137 9.16838 13.2844C8.40408 12.6084 8.02194 12.2704 7.57979 12.1813C7.36207 12.1374 7.13793 12.1374 6.92021 12.1813C6.47806 12.2704 6.09592 12.6084 5.33162 13.2844C3.60255 14.8137 2.73801 15.5784 1.99769 15.4937C1.64461 15.4533 1.31316 15.3012 1.05058 15.0592C0.5 14.5518 0.5 13.3906 0.5 11.0682V7.32314C0.5 4.10668 0.5 2.49845 1.48851 1.49923C2.47703 0.5 4.06802 0.5 7.25 0.5C10.432 0.5 12.023 0.5 13.0115 1.49923C14 2.49845 14 4.10668 14 7.32314Z" fill="#0765FF"/>
<path d="M9.16838 13.2844L8.83712 13.6589V13.6589L9.16838 13.2844ZM7.57979 12.1813L7.48106 12.6715H7.48106L7.57979 12.1813ZM5.33162 13.2844L5.66288 13.6589H5.66288L5.33162 13.2844ZM6.92021 12.1813L7.01894 12.6715H7.01894L6.92021 12.1813ZM1.05058 15.0592L0.711735 15.4269L0.711736 15.4269L1.05058 15.0592ZM1.99769 15.4937L2.05453 14.9969L2.05453 14.9969L1.99769 15.4937ZM13.4494 15.0592L13.7883 15.4269V15.4269L13.4494 15.0592ZM12.5023 15.4937L12.4455 14.9969L12.4455 14.9969L12.5023 15.4937ZM14 7.32314H13.5V11.0682H14H14.5V7.32314H14ZM0.5 11.0682H1V7.32314H0.5H0V11.0682H0.5ZM9.16838 13.2844L9.49964 12.9098C9.12452 12.5781 8.81788 12.3062 8.54841 12.1091C8.27238 11.9073 7.9987 11.7556 7.67853 11.6911L7.57979 12.1813L7.48106 12.6715C7.60303 12.696 7.74149 12.7579 7.95815 12.9163C8.18137 13.0796 8.44795 13.3147 8.83712 13.6589L9.16838 13.2844ZM5.33162 13.2844L5.66288 13.6589C6.05205 13.3147 6.31863 13.0796 6.54185 12.9163C6.75851 12.7579 6.89697 12.696 7.01894 12.6715L6.92021 12.1813L6.82147 11.6911C6.5013 11.7556 6.22762 11.9073 5.95159 12.1091C5.68212 12.3062 5.37548 12.5781 5.00036 12.9098L5.33162 13.2844ZM7.57979 12.1813L7.67853 11.6911C7.39564 11.6342 7.10436 11.6342 6.82147 11.6911L6.92021 12.1813L7.01894 12.6715C7.1715 12.6407 7.3285 12.6407 7.48106 12.6715L7.57979 12.1813ZM0.5 11.0682H0C0 12.2174 -0.000692666 13.1205 0.0716531 13.7975C0.142567 14.4611 0.29357 15.0415 0.711735 15.4269L1.05058 15.0592L1.38942 14.6916C1.25701 14.5695 1.13272 14.3157 1.06599 13.6912C1.00069 13.0801 1 12.2414 1 11.0682H0.5ZM5.33162 13.2844L5.00036 12.9098C4.1267 13.6826 3.50225 14.2339 3.00486 14.5863C2.49642 14.9464 2.22875 15.0168 2.05453 14.9969L1.99769 15.4937L1.94084 15.9904C2.50695 16.0552 3.04171 15.7856 3.58289 15.4023C4.13512 15.0111 4.80747 14.4155 5.66288 13.6589L5.33162 13.2844ZM1.05058 15.0592L0.711736 15.4269C1.05186 15.7404 1.48192 15.9379 1.94084 15.9904L1.99769 15.4937L2.05453 14.9969C1.8073 14.9686 1.57447 14.8621 1.38942 14.6916L1.05058 15.0592ZM14 11.0682H13.5C13.5 12.2414 13.4993 13.0801 13.434 13.6912C13.3673 14.3157 13.243 14.5695 13.1106 14.6916L13.4494 15.0592L13.7883 15.4269C14.2064 15.0415 14.3574 14.4611 14.4283 13.7975C14.5007 13.1205 14.5 12.2174 14.5 11.0682H14ZM9.16838 13.2844L8.83712 13.6589C9.69253 14.4155 10.3649 15.0111 10.9171 15.4023C11.4583 15.7856 11.993 16.0552 12.5592 15.9904L12.5023 15.4937L12.4455 14.9969C12.2713 15.0168 12.0036 14.9464 11.4951 14.5863C10.9977 14.2339 10.3733 13.6826 9.49964 12.9098L9.16838 13.2844ZM13.4494 15.0592L13.1106 14.6916C12.9255 14.8621 12.6927 14.9686 12.4455 14.9969L12.5023 15.4937L12.5592 15.9904C13.0181 15.9379 13.4481 15.7404 13.7883 15.4269L13.4494 15.0592ZM7.25 0.5V1C8.85527 1 10.0084 1.00108 10.886 1.12035C11.7486 1.23758 12.2699 1.46059 12.656 1.85087L13.0115 1.49923L13.3669 1.14758C12.7645 0.538635 11.9961 0.26203 11.0206 0.129458C10.0601 -0.00108457 8.82671 0 7.25 0V0.5ZM14 7.32314H14.5C14.5 5.7289 14.501 4.48345 14.3721 3.5138C14.2413 2.53031 13.9686 1.75578 13.3669 1.14758L13.0115 1.49923L12.656 1.85087C13.0429 2.24189 13.2645 2.77109 13.3808 3.64564C13.499 4.53403 13.5 5.70092 13.5 7.32314H14ZM7.25 0.5V0C5.67329 0 4.43993 -0.00108457 3.47937 0.129458C2.50388 0.26203 1.73548 0.538635 1.13306 1.14758L1.48851 1.49923L1.84397 1.85087C2.23006 1.46059 2.75141 1.23758 3.61404 1.12035C4.49161 1.00108 5.64473 1 7.25 1V0.5ZM0.5 7.32314H1C1 5.70092 1.00104 4.53403 1.1192 3.64564C1.23552 2.77109 1.45713 2.24189 1.84397 1.85087L1.48851 1.49923L1.13306 1.14758C0.53138 1.75578 0.258738 2.53031 0.127929 3.5138C-0.00103962 4.48345 0 5.7289 0 7.32314H0.5Z" fill="#0765FF"/>
</g>
</svg>
