<svg width="33" height="33" viewBox="0 0 33 33" fill="none" xmlns="http://www.w3.org/2000/svg">
<g clip-path="url(#clip0_2921_45768)">
<path d="M11.7384 25.606H11.5001C10.6358 25.606 10.2037 25.606 9.93523 25.3375C9.66675 25.069 9.66675 24.6369 9.66675 23.7727V22.7534C9.66675 22.2781 9.66675 22.0405 9.78883 21.8282C9.91091 21.616 10.0951 21.5089 10.4634 21.2946C12.8884 19.8842 16.3323 19.0903 18.6309 20.4612C18.7853 20.5534 18.9242 20.6645 19.0429 20.7979C19.5545 21.3725 19.5172 22.2398 18.9276 22.7544C18.8031 22.863 18.6704 22.9455 18.5367 22.9741C18.6466 22.9614 18.7518 22.9468 18.8523 22.9308C19.6877 22.7975 20.389 22.3511 21.0311 21.8661L22.6876 20.6147C23.2717 20.1735 24.1384 20.1734 24.7226 20.6145C25.2484 21.0115 25.4092 21.6653 25.0768 22.1982C24.6891 22.8196 24.1428 23.6146 23.6184 24.1004C23.0931 24.5869 22.3111 25.0212 21.6728 25.3293C20.9656 25.6706 20.1844 25.8673 19.3898 25.9959C17.7782 26.2568 16.0986 26.217 14.5034 25.8883C13.6016 25.7026 12.665 25.606 11.7384 25.606Z" fill="#0765FF"/>
<path d="M12.037 8.37047C11.7008 8.70668 11.5751 9.17119 11.5281 9.89581C12.6449 9.88092 13.5474 8.97837 13.5623 7.86156C12.8377 7.90856 12.3732 8.03426 12.037 8.37047Z" fill="#0765FF"/>
<path d="M21.963 8.37047C21.6268 8.03426 21.1623 7.90855 20.4377 7.86155C20.4526 8.97837 21.3551 9.88092 22.4719 9.89581C22.4249 9.17119 22.2992 8.70668 21.963 8.37047Z" fill="#0765FF"/>
<path d="M21.963 14.6299C21.6268 14.9661 21.1623 15.0918 20.4377 15.1388C20.4526 14.022 21.3551 13.1194 22.4719 13.1045C22.4249 13.8291 22.2992 14.2936 21.963 14.6299Z" fill="#0765FF"/>
<path d="M12.037 14.6299C12.3732 14.9661 12.8377 15.0918 13.5623 15.1388C13.5474 14.022 12.6449 13.1194 11.5281 13.1045C11.5751 13.8291 11.7008 14.2936 12.037 14.6299Z" fill="#0765FF"/>
<path fill-rule="evenodd" clip-rule="evenodd" d="M11.5 11.271C13.3985 11.271 14.9375 9.73197 14.9375 7.8335H19.0625C19.0625 9.73197 20.6015 11.271 22.5 11.271V11.7293C20.6015 11.7293 19.0625 13.2684 19.0625 15.1668H14.9375C14.9375 13.2684 13.3985 11.7293 11.5 11.7293V11.271ZM17 12.4168C17.5063 12.4168 17.9167 12.0064 17.9167 11.5002C17.9167 10.9939 17.5063 10.5835 17 10.5835C16.4937 10.5835 16.0833 10.9939 16.0833 11.5002C16.0833 12.0064 16.4937 12.4168 17 12.4168Z" fill="#0765FF"/>
</g>
<defs>
<clipPath id="clip0_2921_45768">
<rect width="32.8417" height="32.8417" fill="white"/>
</clipPath>
</defs>
</svg>
