<svg width="16" height="16" viewBox="0 0 16 16" fill="none" xmlns="http://www.w3.org/2000/svg">
<g clip-path="url(#clip0_2784_49143)">
<path d="M1.3335 10.667C1.3335 8.78137 1.3335 7.83857 1.91928 7.25278C2.50507 6.66699 3.44788 6.66699 5.3335 6.66699H10.6668C12.5524 6.66699 13.4953 6.66699 14.081 7.25278C14.6668 7.83857 14.6668 8.78137 14.6668 10.667C14.6668 12.5526 14.6668 13.4954 14.081 14.0812C13.4953 14.667 12.5524 14.667 10.6668 14.667H5.3335C3.44788 14.667 2.50507 14.667 1.91928 14.0812C1.3335 13.4954 1.3335 12.5526 1.3335 10.667Z" stroke="black" stroke-width="1.5"/>
<path d="M4 6.66634V5.33301C4 3.12387 5.79086 1.33301 8 1.33301C10.2091 1.33301 12 3.12387 12 5.33301V6.66634" stroke="black" stroke-width="1.5" stroke-linecap="round"/>
<path d="M5.3335 10.667H5.3395M7.99416 10.667H8.00016M10.6608 10.667H10.6668" stroke="black" stroke-width="2" stroke-linecap="round" stroke-linejoin="round"/>
</g>
<defs>
<clipPath id="clip0_2784_49143">
<rect width="16" height="16" fill="white"/>
</clipPath>
</defs>
</svg>
