<svg width="40" height="40" viewBox="0 0 40 40" fill="none" xmlns="http://www.w3.org/2000/svg">
<path fill-rule="evenodd" clip-rule="evenodd" d="M20 40C10.5719 40 5.85786 40 2.92893 37.0711C0 34.1421 0 29.4281 0 20C0 10.5719 0 5.85786 2.92893 2.92893C5.85786 0 10.5719 0 20 0C29.4281 0 34.1421 0 37.0711 2.92893C40 5.85786 40 10.5719 40 20C40 29.4281 40 34.1421 37.0711 37.0711C34.1421 40 29.4281 40 20 40ZM20 11.5C18.7574 11.5 17.75 12.5074 17.75 13.75C17.75 14.5784 17.0784 15.25 16.25 15.25C15.4216 15.25 14.75 14.5784 14.75 13.75C14.75 10.8505 17.1005 8.5 20 8.5C22.8995 8.5 25.25 10.8505 25.25 13.75C25.25 15.1717 24.6829 16.464 23.7659 17.4079C23.5814 17.5979 23.4054 17.7737 23.2374 17.9415C22.8058 18.3728 22.4276 18.7507 22.0958 19.177C21.6577 19.7398 21.5 20.1535 21.5 20.5V22C21.5 22.8284 20.8284 23.5 20 23.5C19.1716 23.5 18.5 22.8284 18.5 22V20.5C18.5 19.1896 19.11 18.1289 19.7283 17.3344C20.1858 16.7466 20.7609 16.1727 21.2276 15.7069C21.3683 15.5664 21.4992 15.4358 21.6141 15.3175C22.0092 14.9109 22.25 14.3601 22.25 13.75C22.25 12.5074 21.2426 11.5 20 11.5ZM20 30C21.1046 30 22 29.1046 22 28C22 26.8954 21.1046 26 20 26C18.8954 26 18 26.8954 18 28C18 29.1046 18.8954 30 20 30Z" fill="#0765FF"/>
</svg>
