<svg width="22" height="22" viewBox="0 0 22 22" fill="none" xmlns="http://www.w3.org/2000/svg">
<path fill-rule="evenodd" clip-rule="evenodd" d="M11.6874 1.8335C11.6874 1.4538 11.3796 1.146 10.9999 1.146C10.6202 1.146 10.3124 1.4538 10.3124 1.8335V3.2085H6.1452C5.54243 3.2085 5.24105 3.2085 4.96448 3.29851C4.84246 3.33823 4.72496 3.39064 4.61389 3.45489C4.36213 3.60053 4.16077 3.82477 3.75804 4.27326C2.97823 5.14168 2.58832 5.5759 2.49445 6.08334C2.45367 6.3038 2.45367 6.52986 2.49445 6.75032C2.58832 7.25776 2.97823 7.69197 3.75804 8.5604C4.16076 9.00888 4.36213 9.23313 4.61389 9.37877C4.72496 9.44302 4.84246 9.49543 4.96448 9.53515C5.24105 9.62516 5.54243 9.62516 6.1452 9.62516H10.3124V11.4585H5.95821C4.67079 11.4585 4.02708 11.4585 3.56467 11.7675C3.36448 11.9012 3.19261 12.0731 3.05885 12.2733C2.74988 12.7357 2.74988 13.3794 2.74988 14.6668C2.74988 15.9543 2.74988 16.598 3.05885 17.0604C3.19261 17.2606 3.36448 17.4324 3.56467 17.5662C4.02708 17.8752 4.67079 17.8752 5.95821 17.8752H10.3124V19.4793H9.16654C8.78685 19.4793 8.47904 19.7871 8.47904 20.1668C8.47904 20.5465 8.78685 20.8543 9.16654 20.8543H12.8332C13.2129 20.8543 13.5207 20.5465 13.5207 20.1668C13.5207 19.7871 13.2129 19.4793 12.8332 19.4793H11.6874V17.8752H15.8546C16.4573 17.8752 16.7587 17.8752 17.0353 17.7851C17.1573 17.7454 17.2748 17.693 17.3859 17.6288C17.6376 17.4831 17.839 17.2589 18.2417 16.8104C19.0215 15.942 19.4114 15.5078 19.5053 15.0003C19.5461 14.7799 19.5461 14.5538 19.5053 14.3333C19.4114 13.8259 19.0215 13.3917 18.2417 12.5233C17.839 12.0748 17.6376 11.8505 17.3859 11.7049C17.2748 11.6406 17.1573 11.5882 17.0353 11.5485C16.7587 11.4585 16.4573 11.4585 15.8546 11.4585H11.6874V9.62516H16.0415C17.329 9.62516 17.9727 9.62516 18.4351 9.31619C18.6353 9.18243 18.8071 9.01056 18.9409 8.81037C19.2499 8.34797 19.2499 7.70425 19.2499 6.41683C19.2499 5.12941 19.2499 4.48569 18.9409 4.02328C18.8071 3.8231 18.6353 3.65123 18.4351 3.51747C17.9727 3.2085 17.329 3.2085 16.0415 3.2085H11.6874V1.8335ZM8.24988 5.72933C7.87018 5.72933 7.56238 6.03713 7.56238 6.41683C7.56238 6.79653 7.87018 7.10433 8.24988 7.10433H13.7499C14.1296 7.10433 14.4374 6.79653 14.4374 6.41683C14.4374 6.03713 14.1296 5.72933 13.7499 5.72933H8.24988ZM7.56238 14.6668C7.56238 14.2871 7.87018 13.9793 8.24988 13.9793H13.7499C14.1296 13.9793 14.4374 14.2871 14.4374 14.6668C14.4374 15.0465 14.1296 15.3543 13.7499 15.3543H8.24988C7.87018 15.3543 7.56238 15.0465 7.56238 14.6668Z" fill="#0765FF"/>
</svg>
