<svg width="22" height="22" viewBox="0 0 22 22" fill="none" xmlns="http://www.w3.org/2000/svg">
<path d="M9.24001 7.23919C10.2269 5.46873 10.7204 4.5835 11.4582 4.5835C12.1959 4.5835 12.6894 5.46873 13.6763 7.23919L13.9317 7.69723C14.2121 8.20034 14.3523 8.45189 14.571 8.61787C14.7896 8.78385 15.0619 8.84546 15.6065 8.96868L16.1024 9.08087C18.0189 9.5145 18.9771 9.73131 19.2051 10.4644C19.4331 11.1976 18.7798 11.9615 17.4733 13.4893L17.1352 13.8846C16.764 14.3187 16.5783 14.5358 16.4948 14.8044C16.4113 15.0729 16.4394 15.3626 16.4955 15.9418L16.5466 16.4692C16.7441 18.5077 16.8429 19.5269 16.246 19.98C15.6492 20.4331 14.752 20.02 12.9575 19.1938L12.4933 18.98C11.9834 18.7452 11.7284 18.6279 11.4582 18.6279C11.1879 18.6279 10.933 18.7452 10.423 18.98L9.9588 19.1938C8.16438 20.02 7.26717 20.4331 6.67031 19.98C6.07344 19.5269 6.17221 18.5077 6.36974 16.4692L6.42085 15.9418C6.47698 15.3626 6.50504 15.0729 6.42153 14.8044C6.33802 14.5358 6.15238 14.3187 5.7811 13.8846L5.44308 13.4893C4.13654 11.9615 3.48326 11.1976 3.71124 10.4644C3.93923 9.73131 4.89748 9.5145 6.81398 9.08087L7.3098 8.96868C7.85441 8.84546 8.12671 8.78385 8.34536 8.61787C8.564 8.45189 8.70423 8.20034 8.98468 7.69723L9.24001 7.23919Z" fill="#0765FF"/>
<path d="M4.46149 2.29179C4.48898 2.19482 4.6611 2.19424 4.68924 2.29102C4.81776 2.73296 5.05607 3.38619 5.41644 3.74413C5.7768 4.10207 6.43163 4.33596 6.87442 4.46149C6.97139 4.48898 6.97197 4.6611 6.87519 4.68924C6.43325 4.81776 5.78002 5.05607 5.42208 5.41643C5.06415 5.7768 4.83026 6.43163 4.70472 6.87442C4.67723 6.97139 4.50511 6.97197 4.47697 6.87519C4.34845 6.43325 4.11014 5.78002 3.74978 5.42208C3.38941 5.06415 2.73458 4.83026 2.29179 4.70472C2.19482 4.67723 2.19424 4.50511 2.29102 4.47697C2.73296 4.34845 3.38619 4.11014 3.74413 3.74978C4.10207 3.38941 4.33596 2.73458 4.46149 2.29179Z" fill="#0765FF"/>
<path fill-rule="evenodd" clip-rule="evenodd" d="M17.4167 2.979C17.7964 2.979 18.1042 3.28681 18.1042 3.6665V3.89567H18.3333C18.713 3.89567 19.0208 4.20347 19.0208 4.58317C19.0208 4.96287 18.713 5.27067 18.3333 5.27067H18.1042V5.49984C18.1042 5.87953 17.7964 6.18734 17.4167 6.18734C17.037 6.18734 16.7292 5.87953 16.7292 5.49984V5.27067H16.5C16.1203 5.27067 15.8125 4.96287 15.8125 4.58317C15.8125 4.20347 16.1203 3.89567 16.5 3.89567H16.7292V3.6665C16.7292 3.28681 17.037 2.979 17.4167 2.979Z" fill="#0765FF"/>
</svg>
