<svg width="40" height="40" viewBox="0 0 40 40" fill="none" xmlns="http://www.w3.org/2000/svg">
<path fill-rule="evenodd" clip-rule="evenodd" d="M15.1848 2.40054C14.6978 2.81561 14.4542 3.02315 14.1941 3.19748C13.5979 3.59708 12.9283 3.87443 12.2242 4.01345C11.917 4.07409 11.5981 4.09954 10.9602 4.15045C9.35739 4.27835 8.55601 4.3423 7.88741 4.57846C6.34102 5.12466 5.12466 6.34102 4.57846 7.88741C4.3423 8.55601 4.27835 9.35739 4.15045 10.9602C4.09954 11.5981 4.07409 11.917 4.01345 12.2242C3.87443 12.9283 3.59708 13.5979 3.19748 14.1941C3.02315 14.4542 2.81562 14.6977 2.40054 15.1848C1.35767 16.4086 0.836209 17.0205 0.530431 17.6602C-0.17681 19.1399 -0.17681 20.8601 0.530431 22.3398C0.836211 22.9795 1.35766 23.5914 2.40054 24.8152C2.81557 25.3022 3.02316 25.5458 3.19748 25.8059C3.59708 26.4021 3.87443 27.0717 4.01345 27.7758C4.07409 28.083 4.09954 28.4019 4.15045 29.0398C4.27835 30.6426 4.3423 31.444 4.57846 32.1126C5.12466 33.659 6.34102 34.8753 7.88741 35.4215C8.556 35.6577 9.35739 35.7216 10.9602 35.8496C11.5981 35.9005 11.917 35.9259 12.2242 35.9866C12.9283 36.1256 13.5979 36.4029 14.1941 36.8025C14.4542 36.9768 14.6977 37.1844 15.1848 37.5995C16.4086 38.6423 17.0205 39.1638 17.6602 39.4696C19.1399 40.1768 20.8601 40.1768 22.3398 39.4696C22.9795 39.1638 23.5914 38.6423 24.8152 37.5995C25.3023 37.1844 25.5458 36.9768 25.8059 36.8025C26.4021 36.4029 27.0717 36.1256 27.7758 35.9866C28.083 35.9259 28.4019 35.9005 29.0398 35.8496C30.6426 35.7216 31.444 35.6577 32.1126 35.4215C33.659 34.8753 34.8753 33.659 35.4215 32.1126C35.6577 31.444 35.7216 30.6426 35.8496 29.0398C35.9005 28.4019 35.9259 28.083 35.9866 27.7758C36.1256 27.0717 36.4029 26.4021 36.8025 25.8059C36.9768 25.5458 37.1844 25.3023 37.5995 24.8152C38.6423 23.5914 39.1638 22.9795 39.4696 22.3398C40.1768 20.8601 40.1768 19.1399 39.4696 17.6602C39.1638 17.0205 38.6423 16.4086 37.5995 15.1848C37.1844 14.6977 36.9768 14.4542 36.8025 14.1941C36.4029 13.5979 36.1256 12.9283 35.9866 12.2242C35.9259 11.917 35.9005 11.5981 35.8496 10.9602C35.7216 9.35739 35.6577 8.556 35.4215 7.88741C34.8753 6.34102 33.659 5.12466 32.1126 4.57846C31.444 4.3423 30.6426 4.27835 29.0398 4.15045C28.4019 4.09954 28.083 4.07409 27.7758 4.01345C27.0717 3.87443 26.4021 3.59708 25.8059 3.19748C25.5458 3.02315 25.3023 2.81562 24.8152 2.40054C23.5914 1.35766 22.9795 0.836211 22.3398 0.530431C20.8601 -0.17681 19.1399 -0.17681 17.6602 0.530431C17.0205 0.836209 16.4086 1.35767 15.1848 2.40054ZM28.747 15.7263C29.3826 15.0906 29.3826 14.06 28.747 13.4243C28.1113 12.7887 27.0807 12.7887 26.445 13.4243L16.7445 23.1248L13.5549 19.9352C12.9193 19.2995 11.8886 19.2995 11.253 19.9352C10.6173 20.5709 10.6173 21.6015 11.253 22.2372L15.5936 26.5777C16.2292 27.2134 17.2598 27.2134 17.8955 26.5777L28.747 15.7263Z" fill="#039855"/>
</svg>
